<?xml version="1.0" standalone="no"?><!DOCTYPE svg PUBLIC "-//W3C//DTD SVG 1.1//EN" "http://www.w3.org/Graphics/SVG/1.1/DTD/svg11.dtd"><svg t="1649552789504" class="icon" viewBox="0 0 1024 1024" version="1.1" xmlns="http://www.w3.org/2000/svg" p-id="1916" xmlns:xlink="http://www.w3.org/1999/xlink" width="200" height="200"><defs><style type="text/css">@font-face { font-family: feedback-iconfont; src: url("//at.alicdn.com/t/font_1031158_u69w8yhxdu.woff2?t=1630033759944") format("woff2"), url("//at.alicdn.com/t/font_1031158_u69w8yhxdu.woff?t=1630033759944") format("woff"), url("//at.alicdn.com/t/font_1031158_u69w8yhxdu.ttf?t=1630033759944") format("truetype"); }
</style></defs><path d="M867.64 598.98h59.14v59.14h-59.14zM867.64 539.83h59.14v59.15h-59.14zM867.64 480.68h59.14v59.14h-59.14zM867.64 421.53h59.14v59.15h-59.14zM808.49 658.12h59.15v59.15h-59.15z" fill="#333333" p-id="1917"></path><path d="M808.49 598.98h59.15v59.14h-59.15zM808.49 539.83h59.15v59.15h-59.15zM808.49 480.68h59.15v59.14h-59.15zM808.49 421.53h59.15v59.15h-59.15z" fill="#0B80E0" p-id="1918"></path><path d="M808.49 362.39h59.15v59.14h-59.15zM749.34 717.27h59.14v59.14h-59.14zM749.34 658.12h59.14v59.15h-59.14z" fill="#333333" p-id="1919"></path><path d="M749.34 598.98h59.14v59.14h-59.14z" fill="#0B80E0" p-id="1920"></path><path d="M749.34 539.83h59.14v59.15h-59.14zM749.34 480.68h59.14v59.14h-59.14zM749.34 421.53h59.14v59.15h-59.14z" fill="#7CC0F2" p-id="1921"></path><path d="M749.34 362.39h59.14v59.14h-59.14z" fill="#0B80E0" p-id="1922"></path><path d="M749.34 303.24h59.14v59.15h-59.14zM690.19 717.27h59.15v59.14h-59.15z" fill="#333333" p-id="1923"></path><path d="M690.19 658.12h59.15v59.15h-59.15z" fill="#0B80E0" p-id="1924"></path><path d="M690.19 598.98h59.15v59.14h-59.15zM690.19 539.83h59.15v59.15h-59.15zM690.19 480.68h59.15v59.14h-59.15zM690.19 421.53h59.15v59.15h-59.15zM690.19 362.39h59.15v59.14h-59.15z" fill="#7CC0F2" p-id="1925"></path><path d="M690.19 303.24h59.15v59.15h-59.15z" fill="#0B80E0" p-id="1926"></path><path d="M690.19 244.08h59.15v59.15h-59.15zM690.19 184.94h59.15v59.14h-59.15zM631.05 717.27h59.14v59.14h-59.14zM631.05 658.12h59.14v59.15h-59.14zM631.05 598.98h59.14v59.14h-59.14zM631.05 539.83h59.14v59.15h-59.14zM631.05 480.68h59.14v59.14h-59.14z" fill="#333333" p-id="1927"></path><path d="M631.05 421.53h59.14v59.15h-59.14zM631.05 362.39h59.14v59.14h-59.14z" fill="#7CC0F2" p-id="1928"></path><path d="M631.05 303.24h59.14v59.15h-59.14zM631.05 244.08h59.14v59.15h-59.14z" fill="#BBE7FF" p-id="1929"></path><path d="M631.05 184.94h59.14v59.14h-59.14zM571.9 776.42h59.15v59.15H571.9zM571.9 717.27h59.15v59.14H571.9z" fill="#333333" p-id="1930"></path><path d="M571.9 658.12h59.15v59.15H571.9zM571.9 598.98h59.15v59.14H571.9zM571.9 539.83h59.15v59.15H571.9zM571.9 480.68h59.15v59.14H571.9z" fill="#0B80E0" p-id="1931"></path><path d="M571.9 421.53h59.15v59.15H571.9zM571.9 362.39h59.15v59.14H571.9zM571.9 303.24h59.15v59.15H571.9zM571.9 244.08h59.15v59.15H571.9zM512.75 835.57h59.14v59.14h-59.14zM512.75 776.42h59.14v59.15h-59.14z" fill="#333333" p-id="1932"></path><path d="M512.75 717.27h59.14v59.14h-59.14zM512.75 658.12h59.14v59.15h-59.14z" fill="#0B80E0" p-id="1933"></path><path d="M512.75 598.98h59.14v59.14h-59.14zM512.75 539.83h59.14v59.15h-59.14zM512.75 480.68h59.14v59.14h-59.14zM512.75 421.53h59.14v59.15h-59.14z" fill="#75C7F9" p-id="1934"></path><path d="M512.75 362.39h59.14v59.14h-59.14z" fill="#0B80E0" p-id="1935"></path><path d="M512.75 303.24h59.14v59.15h-59.14zM512.75 244.08h59.14v59.15h-59.14zM453.6 835.57h59.15v59.14H453.6z" fill="#333333" p-id="1936"></path><path d="M453.6 776.42h59.15v59.15H453.6zM453.6 717.27h59.15v59.14H453.6z" fill="#0B80E0" p-id="1937"></path><path d="M453.6 658.12h59.15v59.15H453.6zM453.6 598.98h59.15v59.14H453.6z" fill="#75C7F9" p-id="1938"></path><path d="M453.6 539.83h59.15v59.15H453.6zM453.6 480.68h59.15v59.14H453.6z" fill="#333333" p-id="1939"></path><path d="M453.6 421.53h59.15v59.15H453.6zM453.6 362.39h59.15v59.14H453.6z" fill="#75C7F9" p-id="1940"></path><path d="M453.6 303.24h59.15v59.15H453.6zM453.6 244.08h59.15v59.15H453.6z" fill="#0B80E0" p-id="1941"></path><path d="M453.6 184.94h59.15v59.14H453.6zM394.45 835.57h59.15v59.14h-59.15z" fill="#333333" p-id="1942"></path><path d="M394.45 776.42h59.15v59.15h-59.15z" fill="#0B80E0" p-id="1943"></path><path d="M394.45 717.27h59.15v59.14h-59.15zM394.45 658.12h59.15v59.15h-59.15zM394.45 598.98h59.15v59.14h-59.15zM394.45 539.83h59.15v59.15h-59.15zM394.45 480.68h59.15v59.14h-59.15zM394.45 421.53h59.15v59.15h-59.15zM394.45 362.39h59.15v59.14h-59.15zM394.45 303.24h59.15v59.15h-59.15z" fill="#75C7F9" p-id="1944"></path><path d="M394.45 244.08h59.15v59.15h-59.15z" fill="#0B80E0" p-id="1945"></path><path d="M394.45 184.94h59.15v59.14h-59.15z" fill="#BBE7FF" p-id="1946"></path><path d="M394.45 125.79h59.15v59.15h-59.15zM335.31 835.57h59.14v59.14h-59.14z" fill="#333333" p-id="1947"></path><path d="M335.31 776.42h59.14v59.15h-59.14z" fill="#0B80E0" p-id="1948"></path><path d="M335.31 717.27h59.14v59.14h-59.14zM335.31 658.12h59.14v59.15h-59.14zM335.31 598.98h59.14v59.14h-59.14zM335.31 539.83h59.14v59.15h-59.14zM335.31 480.68h59.14v59.14h-59.14zM335.31 421.53h59.14v59.15h-59.14zM335.31 362.39h59.14v59.14h-59.14zM335.31 303.24h59.14v59.15h-59.14z" fill="#75C7F9" p-id="1949"></path><path d="M335.31 244.08h59.14v59.15h-59.14z" fill="#BBE7FF" p-id="1950"></path><path d="M335.31 184.94h59.14v59.14h-59.14zM276.15 835.57h59.15v59.14h-59.15zM276.15 776.42h59.15v59.15h-59.15z" fill="#333333" p-id="1951"></path><path d="M276.15 717.27h59.15v59.14h-59.15z" fill="#BBE7FF" p-id="1952"></path><path d="M276.15 658.12h59.15v59.15h-59.15zM276.15 598.98h59.15v59.14h-59.15z" fill="#75C7F9" p-id="1953"></path><path d="M276.15 539.83h59.15v59.15h-59.15zM276.15 480.68h59.15v59.14h-59.15z" fill="#333333" p-id="1954"></path><path d="M276.15 421.53h59.15v59.15h-59.15zM276.15 362.39h59.15v59.14h-59.15z" fill="#75C7F9" p-id="1955"></path><path d="M276.15 303.24h59.15v59.15h-59.15z" fill="#BBE7FF" p-id="1956"></path><path d="M276.15 244.08h59.15v59.15h-59.15zM217.01 776.42h59.14v59.15h-59.14z" fill="#333333" p-id="1957"></path><path d="M217.01 717.27h59.14v59.14h-59.14z" fill="#BBE7FF" p-id="1958"></path><path d="M217.01 658.12h59.14v59.15h-59.14zM217.01 598.98h59.14v59.14h-59.14zM217.01 539.83h59.14v59.15h-59.14zM217.01 480.68h59.14v59.14h-59.14z" fill="#75C7F9" p-id="1959"></path><path d="M217.01 421.53h59.14v59.15h-59.14zM217.01 362.39h59.14v59.14h-59.14z" fill="#BBE7FF" p-id="1960"></path><path d="M217.01 303.24h59.14v59.15h-59.14zM157.86 717.27h59.15v59.14h-59.15z" fill="#333333" p-id="1961"></path><path d="M157.86 658.12h59.15v59.15h-59.15zM157.86 598.98h59.15v59.14h-59.15zM157.86 539.83h59.15v59.15h-59.15zM157.86 480.68h59.15v59.14h-59.15z" fill="#BBE7FF" p-id="1962"></path><path d="M157.86 421.53h59.15v59.15h-59.15zM157.86 362.39h59.15v59.14h-59.15zM98.71 658.12h59.14v59.15H98.71zM98.71 598.98h59.14v59.14H98.71zM98.71 539.83h59.14v59.15H98.71zM98.71 480.68h59.14v59.14H98.71z" fill="#333333" p-id="1963"></path></svg>